<svg version="1.1" xmlns="http://www.w3.org/2000/svg" viewBox="-281.7 -1576.45 6073.067155711696 2382.9"><desc>Created with Snap</desc><defs></defs><g><g transform="matrix(19.6719,0,0,19.6719,3615.3407,-1367.6093)"><g><path d="M78.4,66.5c-5.5,4.8-9.9,15.2-9.9,15.2s-6.9-11.4-12.9-15.3c-9.5-6.1-13.6-6.2-13.6-6.2V65c0,0,7.8,1.2,11.7,4.6   c8.2,7.1,14.8,18.5,14.8,18.5S74.4,75,80.1,70.5C88.1,64.3,95,65,95,65v-4.8C95,60.1,85.1,60.7,78.4,66.5z" style="" fill="#e8715b"></path><path d="M42,80c-6.4-3.6-17.8-4.3-17.8-4.3s8.7-10.1,10.5-17C37.5,47.9,36.2,44,36.2,44l-4.6,1.6c0,0,1.3,7.7-0.6,12.4   c-4.1,9.9-13,19.8-13,19.8s14.6,1.3,20.7,5.1c8.6,5.4,10.2,12,10.2,12l4.6-1.6C53.5,93.4,49.7,84.4,42,80z" style="" fill="#e8715b"></path><path d="M35.3,36.8c11.3-0.9,14.6-3.4,14.6-3.4l-3-3.8c0,0-6.9,3.7-12.1,3.4c-10.9-0.6-23.3-5.6-23.3-5.6s3.5,14,1.8,20.9   C10.9,58.2,5,61.8,5,61.8l3,3.8c0,0,7.5-6.5,9.1-15.1c1.3-7.1-1.7-18-1.7-18S28,37.4,35.3,36.8z" style="" fill="#e8715b"></path><path d="M37.4,17.8c7.3-1.1,16.7-7.4,16.7-7.4s-0.6,13.2,2.4,19.8c4.6,10.2,8,12.5,8,12.5l2.7-4c0,0-5.9-5.2-7.3-10.2   C56.9,18.2,57.7,5,57.7,5s-12.3,7.8-19.5,8.5c-10.2,1-15.6-3.3-15.6-3.3l-2.7,4.1C19.9,14.2,28.6,19.1,37.4,17.8z" style="" fill="#e8715b"></path><path d="M65,60.5c0,0,3.1-7.2,7.4-10.1c9-6.1,21.9-9.7,21.9-9.7s-11.5-8.9-14.5-15.4c-4.2-9.1-1.9-15.6-1.9-15.6l-4.8-1.2   c0,0-1.9,9.6,2.2,17.4c3.4,6.4,12.5,13.2,12.5,13.2S75,42.9,69.6,47.8c-8.3,7.6-9.4,11.5-9.4,11.5L65,60.5z" style="" fill="#e8715b"></path></g><desc>Created with Snap</desc><defs></defs></g><g><g transform="matrix(0.5,0,0,-0.5,0,0)"><path d="M575 274L575 518Q575 543 559 556Q543 569 518 569Q483 569 451 553Q420 537 396 506Q372 475 358 429Q344 384 344 324Q344 266 352 228Q361 190 375 167Q390 145 409 136Q428 127 449 127Q475 127 498 140Q521 154 538 175Q555 196 565 222Q575 248 575 274ZM416 956Q382 956 353 948Q324 940 303 928Q282 916 270 901Q258 887 258 874Q258 859 273 852Q289 846 308 837Q327 829 342 813Q358 798 358 766Q358 745 349 727Q341 710 326 696Q312 683 292 675Q273 668 252 668Q196 668 161 706Q127 744 127 807Q127 868 159 911Q191 955 242 983Q294 1011 359 1024Q424 1038 489 1038Q567 1038 638 1021Q709 1004 763 967Q818 930 850 873Q883 816 883 735L883 170Q883 161 884 150Q885 139 889 130Q893 121 901 115Q909 109 924 109Q942 109 957 122Q973 136 985 150L1010 129Q995 108 974 83Q953 58 923 36Q893 14 853 -1Q813 -16 762 -16Q699 -16 650 21Q601 59 586 137Q554 94 519 65Q485 36 449 18Q413 0 376 -8Q340 -16 303 -16Q255 -16 210 -1Q165 14 129 46Q94 79 72 131Q51 183 51 258Q51 349 87 407Q123 465 181 504Q240 544 314 572Q389 600 467 631Q525 654 551 699Q578 745 578 793Q578 867 534 911Q491 956 416 956ZM1466 958Q1443 958 1422 952Q1402 946 1386 932Q1370 919 1361 898Q1352 878 1352 850Q1352 811 1380 772Q1409 734 1451 692Q1494 651 1543 606Q1593 562 1635 512Q1678 463 1706 407Q1735 351 1735 287Q1735 215 1710 159Q1686 103 1640 64Q1595 25 1530 4Q1466 -16 1387 -16Q1318 -16 1262 3Q1206 23 1162 51Q1119 80 1088 112Q1057 144 1040 170L1075 195Q1088 180 1108 162Q1128 145 1152 130Q1177 115 1205 105Q1233 96 1262 96Q1334 96 1380 130Q1426 165 1426 233Q1426 271 1401 311Q1376 352 1338 395Q1300 438 1256 484Q1212 530 1174 579Q1136 628 1111 680Q1086 732 1086 788Q1086 851 1111 898Q1137 945 1179 976Q1222 1007 1276 1022Q1331 1038 1389 1038Q1456 1038 1511 1026Q1566 1014 1605 989Q1645 965 1666 928Q1688 891 1688 842Q1688 804 1663 776Q1638 748 1593 748Q1550 748 1527 766Q1505 785 1505 817Q1505 838 1515 850Q1526 862 1539 869Q1552 877 1562 882Q1573 888 1573 897Q1573 925 1543 941Q1513 958 1466 958ZM2242 958Q2219 958 2198 952Q2178 946 2162 932Q2146 919 2137 898Q2128 878 2128 850Q2128 811 2156 772Q2185 734 2227 692Q2270 651 2319 606Q2369 562 2411 512Q2454 463 2482 407Q2511 351 2511 287Q2511 215 2486 159Q2462 103 2416 64Q2371 25 2306 4Q2242 -16 2163 -16Q2094 -16 2038 3Q1982 23 1938 51Q1895 80 1864 112Q1833 144 1816 170L1851 195Q1864 180 1884 162Q1904 145 1928 130Q1953 115 1981 105Q2009 96 2038 96Q2110 96 2156 130Q2202 165 2202 233Q2202 271 2177 311Q2152 352 2114 395Q2076 438 2032 484Q1988 530 1950 579Q1912 628 1887 680Q1862 732 1862 788Q1862 851 1887 898Q1913 945 1955 976Q1998 1007 2052 1022Q2107 1038 2165 1038Q2232 1038 2287 1026Q2342 1014 2381 989Q2421 965 2442 928Q2464 891 2464 842Q2464 804 2439 776Q2414 748 2369 748Q2326 748 2303 766Q2281 785 2281 817Q2281 838 2291 850Q2302 862 2315 869Q2328 877 2338 882Q2349 888 2349 897Q2349 925 2319 941Q2289 958 2242 958ZM3147 274L3147 518Q3147 543 3131 556Q3115 569 3090 569Q3055 569 3023 553Q2992 537 2968 506Q2944 475 2930 429Q2916 384 2916 324Q2916 266 2924 228Q2933 190 2947 167Q2962 145 2981 136Q3000 127 3021 127Q3047 127 3070 140Q3093 154 3110 175Q3127 196 3137 222Q3147 248 3147 274ZM2988 956Q2954 956 2925 948Q2896 940 2875 928Q2854 916 2842 901Q2830 887 2830 874Q2830 859 2845 852Q2861 846 2880 837Q2899 829 2914 813Q2930 798 2930 766Q2930 745 2921 727Q2913 710 2898 696Q2884 683 2864 675Q2845 668 2824 668Q2768 668 2733 706Q2699 744 2699 807Q2699 868 2731 911Q2763 955 2814 983Q2866 1011 2931 1024Q2996 1038 3061 1038Q3139 1038 3210 1021Q3281 1004 3335 967Q3390 930 3422 873Q3455 816 3455 735L3455 170Q3455 161 3456 150Q3457 139 3461 130Q3465 121 3473 115Q3481 109 3496 109Q3514 109 3529 122Q3545 136 3557 150L3582 129Q3567 108 3546 83Q3525 58 3495 36Q3465 14 3425 -1Q3385 -16 3334 -16Q3271 -16 3222 21Q3173 59 3158 137Q3126 94 3091 65Q3057 36 3021 18Q2985 0 2948 -8Q2912 -16 2875 -16Q2827 -16 2782 -1Q2737 14 2701 46Q2666 79 2644 131Q2623 183 2623 258Q2623 349 2659 407Q2695 465 2753 504Q2812 544 2886 572Q2961 600 3039 631Q3097 654 3123 699Q3150 745 3150 793Q3150 867 3106 911Q3063 956 2988 956ZM4026 1391L4026 88Q4026 75 4021 57Q4017 39 4000 23Q3984 7 3952 -5Q3921 -16 3868 -16Q3815 -16 3785 -4Q3755 9 3740 26Q3726 43 3722 61Q3719 79 3719 90L3719 1380Q3719 1409 3705 1430Q3692 1452 3660 1452Q3643 1452 3630 1446Q3618 1441 3604 1430L3584 1454Q3607 1473 3635 1491Q3663 1510 3696 1524Q3730 1538 3768 1547Q3806 1556 3848 1556Q3913 1556 3949 1538Q3985 1521 4002 1495Q4019 1470 4022 1441Q4026 1413 4026 1391ZM4728 274L4728 518Q4728 543 4712 556Q4696 569 4671 569Q4636 569 4604 553Q4573 537 4549 506Q4525 475 4511 429Q4497 384 4497 324Q4497 266 4505 228Q4514 190 4528 167Q4543 145 4562 136Q4581 127 4602 127Q4628 127 4651 140Q4674 154 4691 175Q4708 196 4718 222Q4728 248 4728 274ZM4569 956Q4535 956 4506 948Q4477 940 4456 928Q4435 916 4423 901Q4411 887 4411 874Q4411 859 4426 852Q4442 846 4461 837Q4480 829 4495 813Q4511 798 4511 766Q4511 745 4502 727Q4494 710 4479 696Q4465 683 4445 675Q4426 668 4405 668Q4349 668 4314 706Q4280 744 4280 807Q4280 868 4312 911Q4344 955 4395 983Q4447 1011 4512 1024Q4577 1038 4642 1038Q4720 1038 4791 1021Q4862 1004 4916 967Q4971 930 5003 873Q5036 816 5036 735L5036 170Q5036 161 5037 150Q5038 139 5042 130Q5046 121 5054 115Q5062 109 5077 109Q5095 109 5110 122Q5126 136 5138 150L5163 129Q5148 108 5127 83Q5106 58 5076 36Q5046 14 5006 -1Q4966 -16 4915 -16Q4852 -16 4803 21Q4754 59 4739 137Q4707 94 4672 65Q4638 36 4602 18Q4566 0 4529 -8Q4493 -16 4456 -16Q4408 -16 4363 -1Q4318 14 4282 46Q4247 79 4225 131Q4204 183 4204 258Q4204 349 4240 407Q4276 465 4334 504Q4393 544 4467 572Q4542 600 4620 631Q4678 654 4704 699Q4731 745 4731 793Q4731 867 4687 911Q4644 956 4569 956ZM6152 758L6152 88Q6152 75 6148 57Q6144 39 6128 23Q6113 7 6082 -5Q6051 -16 5998 -16Q5945 -16 5914 -4Q5884 9 5868 26Q5853 43 5849 61Q5845 79 5845 90L5845 797Q5845 811 5841 825Q5837 840 5829 852Q5821 864 5809 871Q5797 879 5781 879Q5754 879 5728 863Q5702 848 5679 828Q5657 808 5640 788Q5624 768 5617 758L5617 88Q5617 75 5613 57Q5609 39 5593 23Q5578 7 5547 -5Q5517 -16 5464 -16Q5411 -16 5380 -4Q5350 9 5334 26Q5318 43 5314 61Q5310 79 5310 90L5310 862Q5310 891 5296 912Q5283 934 5251 934Q5234 934 5222 928Q5210 922 5196 911L5175 936Q5198 955 5226 973Q5255 992 5288 1006Q5321 1020 5359 1029Q5397 1038 5439 1038Q5504 1038 5540 1016Q5576 995 5593 965Q5610 935 5613 902Q5617 870 5617 848Q5664 901 5718 943Q5740 961 5766 978Q5793 995 5821 1008Q5849 1022 5879 1030Q5909 1038 5939 1038Q5997 1038 6038 1017Q6079 996 6104 966Q6129 937 6140 904Q6152 872 6152 848Q6200 901 6253 943Q6275 961 6301 978Q6327 995 6355 1008Q6384 1022 6413 1030Q6443 1038 6473 1038Q6531 1038 6572 1016Q6613 995 6638 960Q6663 925 6674 881Q6686 837 6686 793L6686 174Q6686 165 6687 154Q6688 144 6692 134Q6696 125 6704 119Q6713 113 6727 113Q6746 113 6761 126Q6776 140 6789 154L6813 133Q6799 112 6776 86Q6753 61 6721 38Q6690 15 6648 -1Q6607 -16 6555 -16Q6511 -16 6478 -5Q6446 7 6423 26Q6401 46 6390 72Q6379 99 6379 129L6379 797Q6379 811 6375 825Q6371 840 6363 852Q6356 864 6344 871Q6332 879 6316 879Q6289 879 6262 863Q6236 848 6213 828Q6191 808 6175 788Q6159 768 6152 758Z" style="" fill="#072a55"></path></g></g></g></svg>